<?xml version="1.0" encoding="utf-8"?>
<!-- Generator: Adobe Illustrator 19.0.1, SVG Export Plug-In . SVG Version: 6.00 Build 0)  -->
<svg version="1.0" id="Layer_1" xmlns="http://www.w3.org/2000/svg" xmlns:xlink="http://www.w3.org/1999/xlink" x="0px" y="0px"
	 viewBox="0 0 1471.7 1598.8" style="enable-background:new 0 0 1471.7 1598.8;" xml:space="preserve">
<path d="M1.2,688.5c213.7-24.4,345.3-216.3,233.5-433.7C375.8,176.3,515.6,94.7,659.1,20.2c62.1-32.3,130.7-24,192.7,10.9
	c172.8,97.3,345.4,194.9,517.2,293.8c66.3,38.2,100.8,99.1,101.5,174.9c1.7,200.4,1.8,400.8,0,601.2
	c-0.7,75.7-35.5,136.5-101.9,174.6c-171.9,98.8-344.3,196.8-517.4,293.5c-71.9,40.2-146.5,39.3-218.6-0.8
	c-175-97.2-349.8-194.8-523.8-293.7C49.1,1240.9,5.3,1189,2.8,1120.3C-2.4,977.6,1.2,834.6,1.2,688.5z"/>
</svg>
